{"title":"Viy.1967.DVDRip.XviD.SPEKTRO","uid":9560182,"size":1703870416,"categoryP":"video","categoryS":"movies","magnet":"?xt=urn:btih:509b35a83a379fd5a8e3c8b2b831e2fc97414060&amp;dn=Viy.1967.DVDRip.XviD.SPEKTRO&amp;tr=udp%3A%2F%2Ftracker.openbittorrent.com%3A80&amp;tr=udp%3A%2F%2Fopen.demonii.com%3A1337&amp;tr=udp%3A%2F%2Ftracker.coppersurfer.tk%3A6969&amp;tr=udp%3A%2F%2Fexodus.desync.com%3A6969","seeders":3,"leechers":1,"uploader":"sektor2","files":8,"time":1391409850,"description":"Synopsis:\n\nA young priest is ordered to preside over the wake of witch in a small old wooden church of a remote village. This means spending three nights alone with the corpse with only his faith to protect him.\n\n\nDirected by:\n\nKonstantin Ershov\t\nGeorgi Kropachyov \nKonstantin Ershov\nNikolai Gogol\nGeorgi Kropachyov\nAleksandr Ptushko\n\nCast (in credits order):\n\nLeonid Kuravlyov     ... Khoma\nNatalya Varley\t     ... Pannochka\nAleksey Glazyrin     ... Sotnik\nNikolay Kutuzov\t     ... Vedma\nVadim Zakharchenko   ... Khalyava\nPyotr Vesklyarov     ... Rektor / Dorosh\nVladimir Salnikov    ... Gorobets\nDmitriy Kapka\t     ... Overko\nStepan Shkurat\t     ... Yavtukh\nGeorgiy Sochevko     ... Stepan\nNikolay Yakovchenko  ... Spirid\nNikolay Panasev\t     ... Uteshitel\n\nRest of cast listed alphabetically:\nBorislav Brondukov   ... Bursak (uncredited)\nAleksandra Denisova  ... Selyanka (uncredited)\nLyubov Kalyuzhnaya   ... Selyanka (uncredited)\nViktor Kolpakov\t     ... Selyanin (uncredited)\nMargarita Krinitsyna ... Gafiyka (uncredited)\nAleksandr Lebedev    ... Bursak (uncredited)\nDmitriy Orlovskiy    ... Selyanin (uncredited)\nAnna Pavlova         ... Selyanka (uncredited)\nKlara Rumyanova\t     ... Pannochka (voice) (uncredited)\n\nMedia Info:\n\nFormat                                   : AVI\nFormat/Info                              : Audio Video Interleave\nFormat profile                           : OpenDML\nFile size                                : 1.59 GiB\nDuration                                 : 1h 11mn\nOverall bit rate                         : 3 162 Kbps\nWriting application                      : Lavf54.29.104\n\nVideo\nID                                       : 0\nFormat                                   : xvid\nCodec ID                                 : xvid\nDuration                                 : 1h 11mn\nBit rate                                 : 2 891 Kbps\nWidth                                    : 720 pixels\nHeight                                   : 480 pixels\nDisplay aspect ratio                     : 3:2\nFrame rate                               : 30.000 fps\nStandard                                 : NTSC\nBits/(Pixel*Frame)                       : 0.279\nStream size                              : 1.45 GiB (91%)\n\nAudio\nID                                       : 1\nFormat                                   : MPEG Audio\nFormat version                           : Version 1\nFormat profile                           : Layer 3\nMode                                     : Joint stereo\nMode extension                           : MS Stereo\nCodec ID                                 : 55\nCodec ID/Hint                            : MP3\nDuration                                 : 1h 11mn\nBit rate mode                            : Constant\nBit rate                                 : 256 Kbps\nChannel count                            : 2 channels\nSampling rate                            : 48.0 KHz\nCompression mode                         : Lossy\nStream size                              : 132 MiB (8%)\nAlignment                                : Aligned on interleaves\nInterleave, duration                     : 24 ms (0.72 video frame)\nInterleave, preload duration             : 24 ms\n\nAudio: Russian.\n\nSubtitles (.srt) Included in folder:\nEnglish, Spanish, French, German, Italian &amp; Portuguese.\n\n\nSCREENS:\n &lt;a href=&quot;\nhttp://istoreimg.com/i/52ef290de1dd2.html&quot; rel=&quot;nofollow&quot; target=&quot;_NEW&quot;&gt;\nhttp://istoreimg.com/i/52ef290de1dd2.html&lt;/a&gt;\n &lt;a href=&quot;\nhttp://istoreimg.com/i/52ef291516400.html&quot; rel=&quot;nofollow&quot; target=&quot;_NEW&quot;&gt;\nhttp://istoreimg.com/i/52ef291516400.html&lt;/a&gt;\n &lt;a href=&quot;\nhttp://istoreimg.com/i/52ef2919dc11a.html&quot; rel=&quot;nofollow&quot; target=&quot;_NEW&quot;&gt;\nhttp://istoreimg.com/i/52ef2919dc11a.html&lt;/a&gt;\n &lt;a href=&quot;\nhttp://istoreimg.com/i/52ef29224004a.html&quot; rel=&quot;nofollow&quot; target=&quot;_NEW&quot;&gt;\nhttp://istoreimg.com/i/52ef29224004a.html&lt;/a&gt;\n &lt;a href=&quot;\nhttp://istoreimg.com/i/52ef29274ca1b.html&quot; rel=&quot;nofollow&quot; target=&quot;_NEW&quot;&gt;\nhttp://istoreimg.com/i/52ef29274ca1b.html&lt;/a&gt;\n &lt;a href=&quot;\nhttp://istoreimg.com/i/52ef292dee657.html&quot; rel=&quot;nofollow&quot; target=&quot;_NEW&quot;&gt;\nhttp://istoreimg.com/i/52ef292dee657.html&lt;/a&gt;","torrent":{"xt":"urn:btih:509b35a83a379fd5a8e3c8b2b831e2fc97414060","amp;dn":"Viy.1967.DVDRip.XviD.SPEKTRO","amp;tr":["udp%3A%2F%2Ftracker.openbittorrent.com%3A80","udp%3A%2F%2Fopen.demonii.com%3A1337","udp%3A%2F%2Ftracker.coppersurfer.tk%3A6969","udp%3A%2F%2Fexodus.desync.com%3A6969"],"infoHash":"509b35a83a379fd5a8e3c8b2b831e2fc97414060","infoHashBuffer":{"type":"Buffer","data":[80,155,53,168,58,55,159,213,168,227,200,178,184,49,226,252,151,65,64,96]},"announce":[],"urlList":[]}}